# xmcd
#
# Track frame offsets:
#	150
#	15888
#	36214
#	52974
#	70762
#	80587
#	96337
#	105790
#	122095
#	137351
#	152175
#	168600
#	183408
#	193225
#
# Disc length: 2867 seconds
#
# Revision: 0
# Processed by: cddbd v1.5.2PL0 Copyright (c) Steve Scherf et al.
# Submitted via: EasyCDDAExtractor 16.0.8.2
#
DISCID=af0b310e
DTITLE=Άγνωστος - Τα καλ. παραδ. τραγ. 3 Τσάμικα-καλαματιανά
DYEAR=1900
DGENRE=Παραδοσιακή
TTITLE0=Ρούσα παπαδιά [συρτός Ρούμελης]
TTITLE1=Ο ήλιος τσάμικος Ρούμελης]
TTITLE2=Βασιλικός θα γίνω [συρτό Ηπείρου]
TTITLE3=Ροκατσάνικο [Θεσσαλίας]
TTITLE4=Μήλο μου κόκκινο [καλαματιανό Μακεδονίας]
TTITLE5=Νά 'σαν τα νιάτα δυό φορές [τσάμικος Ηπείρου]
TTITLE6=Στον Άδη θα κατέβω [καλαματιανός Πελοποννήσου]
TTITLE7=Η Άρτα [τσάμικος Πελοποννήσου]
TTITLE8=Μωρή κοντούλα λεμονιά [Ηπειρώτικο]
TTITLE9=Ο αμάραντος [τσάμικος Στερεάς Ελλάδος]
TTITLE10=Κυρ Κωστάκη έλα κοντά [συρτός Μακεδονίας]
TTITLE11=Αγιοθορωρίτικο [τσάμικο Στερεάς Ελλάδος]
TTITLE12=Τρία παιδιά Βολιώτικα [καλαματιανό Ρούμελης]
TTITLE13=Σαράντα παλληκάρια [συρτός Ρούμελης]
EXTD=
EXTT0=
EXTT1=
EXTT2=
EXTT3=
EXTT4=
EXTT5=
EXTT6=
EXTT7=
EXTT8=
EXTT9=
EXTT10=
EXTT11=
EXTT12=
EXTT13=
PLAYORDER=
